<svg width="110" height="24" viewBox="0 0 110 24" fill="none" xmlns="http://www.w3.org/2000/svg">
<path d="M19.3516 14.2358C17.8887 13.3626 16.6677 12.137 15.8 10.6708C14.9334 9.20674 14.448 7.54862 14.3883 5.84835C14.3869 5.67608 14.3393 5.50733 14.2505 5.35973C14.1617 5.21212 14.0349 5.09106 13.8833 5.00918C13.7313 4.9165 13.5567 4.86747 13.3787 4.86747C13.2007 4.86747 13.0261 4.9165 12.8741 5.00918C12.3628 5.25767 11.8018 5.38676 11.2333 5.38668C10.582 5.41599 9.93423 5.27703 9.35228 4.98321C8.77034 4.68939 8.27389 4.25062 7.9108 3.70918C7.77915 3.52329 7.60107 3.37514 7.39432 3.27952C7.18758 3.1839 6.95938 3.14413 6.73247 3.16418C6.51762 3.18933 6.31381 3.27306 6.14333 3.40621C5.97285 3.53936 5.84225 3.71682 5.7658 3.91918C5.30693 5.04006 4.68309 6.08606 3.91497 7.02251C3.42831 7.63836 2.97863 8.28255 2.5683 8.95168C2.19881 9.46462 2 10.0808 2 10.7129C2 11.3451 2.19881 11.9612 2.5683 12.4742C3.51841 13.6171 4.71119 14.534 6.05997 15.1583C7.36757 15.8018 8.57238 16.6359 9.63497 17.6333C10.671 18.7269 11.9351 19.579 13.3375 20.1292C14.7411 20.6799 16.2485 20.916 17.7533 20.8208C21.2025 20.8208 21.665 19.5208 21.9591 18.3042C22.2116 16.8358 21.2858 15.4942 19.3508 14.2358H19.3516ZM6.73247 4.38001C7.41725 5.35903 8.41276 6.07791 9.55747 6.42001C10.7032 6.76276 11.9311 6.70903 13.0425 6.26751C13.0708 6.81751 13.1408 7.36418 13.2525 7.90335H11.065V8.28001C11.0647 8.39049 11.0864 8.49991 11.1286 8.60199C11.1709 8.70406 11.2329 8.79677 11.3111 8.87477C11.3894 8.95277 11.4823 9.01452 11.5845 9.05647C11.6867 9.09842 11.7962 9.11973 11.9066 9.11918H13.5891C13.7575 9.56668 13.925 9.98585 14.0933 10.3775H12.2008V10.7967C12.2006 10.9072 12.2222 11.0166 12.2645 11.1187C12.3067 11.2207 12.3687 11.3134 12.447 11.3914C12.5252 11.4694 12.6181 11.5312 12.7203 11.5731C12.8225 11.6151 12.932 11.6364 13.0425 11.6358H14.8091C15.7719 13.1137 17.0503 14.3598 18.5525 15.2842C19.4922 15.7425 20.2271 16.5351 20.6133 17.5067C20.1542 17.5892 19.6841 17.5892 19.225 17.5067C17.7941 17.5443 16.3709 17.2841 15.0459 16.7428C13.7208 16.2014 12.5227 15.3905 11.5275 14.3617C10.4989 13.3808 9.37116 12.5095 8.16247 11.7617C7.01537 11.1169 6.03574 10.2118 5.30247 9.11918C5.08731 8.79622 4.9725 8.41683 4.9725 8.02876C4.9725 7.64069 5.08731 7.2613 5.30247 6.93835C5.93707 6.16159 6.46095 5.30062 6.85914 4.38001H6.73247ZM17.9216 19.6883C16.5667 19.783 15.2076 19.5763 13.9421 19.0831C12.6765 18.5899 11.536 17.8224 10.6025 16.8358C9.4635 15.7605 8.17417 14.8566 6.77497 14.1525C5.59807 13.6128 4.5617 12.8085 3.74664 11.8025C3.53132 11.5033 3.41548 11.144 3.41548 10.7754C3.41548 10.4068 3.53132 10.0475 3.74664 9.74835L4.12497 9.20334C4.20747 9.50001 4.33497 9.78334 4.5033 10.0417C5.33664 11.3083 6.46164 12.3583 7.78414 13.1033C8.92115 13.8157 9.9911 14.6299 10.9808 15.5358C12.064 16.668 13.3712 17.5621 14.8191 18.1608C16.2682 18.7605 17.8263 19.0519 19.3941 19.0167H20.4866C20.4866 19.2683 19.6875 19.6883 17.9216 19.6883Z" fill="#020202"/>
<path d="M32.5703 10.1562C32.5703 9.69271 32.6589 9.25781 32.8359 8.85156C33.013 8.44531 33.2526 8.09115 33.5547 7.78906C33.862 7.48177 34.2188 7.23958 34.625 7.0625C35.0312 6.88542 35.4661 6.79688 35.9297 6.79688H41.0703V9.03906H35.9297C35.7734 9.03906 35.6276 9.06771 35.4922 9.125C35.3568 9.18229 35.237 9.26302 35.1328 9.36719C35.0339 9.46615 34.9557 9.58333 34.8984 9.71875C34.8411 9.85417 34.8125 10 34.8125 10.1562C34.8125 10.3125 34.8411 10.4609 34.8984 10.6016C34.9557 10.737 35.0339 10.8568 35.1328 10.9609C35.237 11.0599 35.3568 11.138 35.4922 11.1953C35.6276 11.2526 35.7734 11.2812 35.9297 11.2812H38.1719C38.6354 11.2812 39.0703 11.3698 39.4766 11.5469C39.888 11.7188 40.2448 11.9583 40.5469 12.2656C40.8542 12.5677 41.0938 12.9245 41.2656 13.3359C41.4427 13.7422 41.5312 14.1771 41.5312 14.6406C41.5312 15.1042 41.4427 15.5391 41.2656 15.9453C41.0938 16.3516 40.8542 16.7083 40.5469 17.0156C40.2448 17.3177 39.888 17.5573 39.4766 17.7344C39.0703 17.9115 38.6354 18 38.1719 18H33.1953V15.7578H38.1719C38.3281 15.7578 38.474 15.7292 38.6094 15.6719C38.7448 15.6146 38.862 15.5365 38.9609 15.4375C39.0651 15.3333 39.1458 15.2135 39.2031 15.0781C39.2604 14.9427 39.2891 14.7969 39.2891 14.6406C39.2891 14.4844 39.2604 14.3385 39.2031 14.2031C39.1458 14.0677 39.0651 13.9505 38.9609 13.8516C38.862 13.7474 38.7448 13.6667 38.6094 13.6094C38.474 13.5521 38.3281 13.5234 38.1719 13.5234H35.9297C35.4661 13.5234 35.0312 13.4349 34.625 13.2578C34.2188 13.0807 33.862 12.8411 33.5547 12.5391C33.2526 12.2318 33.013 11.875 32.8359 11.4688C32.6589 11.0573 32.5703 10.6198 32.5703 10.1562ZM50.8672 13.7422C50.8672 14.3672 50.7552 14.9505 50.5312 15.4922C50.3073 16.0286 50.0026 16.4948 49.6172 16.8906C49.2318 17.2812 48.7786 17.5911 48.2578 17.8203C47.7422 18.0443 47.1875 18.1562 46.5938 18.1562C46.0052 18.1562 45.4505 18.0443 44.9297 17.8203C44.4141 17.5911 43.9609 17.2812 43.5703 16.8906C43.1849 16.4948 42.8802 16.0286 42.6562 15.4922C42.4323 14.9505 42.3203 14.3672 42.3203 13.7422C42.3203 13.1068 42.4323 12.5182 42.6562 11.9766C42.8802 11.4349 43.1849 10.9688 43.5703 10.5781C43.9609 10.1823 44.4141 9.8724 44.9297 9.64844C45.4505 9.42448 46.0052 9.3125 46.5938 9.3125C47.1875 9.3125 47.7422 9.41927 48.2578 9.63281C48.7786 9.84115 49.2318 10.1406 49.6172 10.5312C50.0026 10.9167 50.3073 11.3828 50.5312 11.9297C50.7552 12.4714 50.8672 13.0755 50.8672 13.7422ZM48.7188 13.7422C48.7188 13.3984 48.6615 13.0885 48.5469 12.8125C48.4375 12.5312 48.2865 12.2917 48.0938 12.0938C47.901 11.8906 47.6745 11.737 47.4141 11.6328C47.1589 11.5234 46.8854 11.4688 46.5938 11.4688C46.3021 11.4688 46.026 11.5234 45.7656 11.6328C45.5104 11.737 45.2865 11.8906 45.0938 12.0938C44.9062 12.2917 44.7578 12.5312 44.6484 12.8125C44.5391 13.0885 44.4844 13.3984 44.4844 13.7422C44.4844 14.0651 44.5391 14.3646 44.6484 14.6406C44.7578 14.9167 44.9062 15.1562 45.0938 15.3594C45.2865 15.5625 45.5104 15.724 45.7656 15.8438C46.026 15.9583 46.3021 16.0156 46.5938 16.0156C46.8854 16.0156 47.1589 15.9609 47.4141 15.8516C47.6745 15.7422 47.901 15.5885 48.0938 15.3906C48.2865 15.1927 48.4375 14.9531 48.5469 14.6719C48.6615 14.3906 48.7188 14.0807 48.7188 13.7422ZM54.1953 18H52.0469V6.30469H54.1953V18ZM59.1562 15.9531C59.2396 15.9792 59.3229 15.9974 59.4062 16.0078C59.4896 16.013 59.5729 16.0156 59.6562 16.0156C59.8646 16.0156 60.0651 15.987 60.2578 15.9297C60.4505 15.8724 60.6302 15.7917 60.7969 15.6875C60.9688 15.5781 61.1198 15.4479 61.25 15.2969C61.3854 15.1406 61.4948 14.9688 61.5781 14.7812L63.1406 16.3516C62.9427 16.6328 62.7135 16.8854 62.4531 17.1094C62.1979 17.3333 61.9193 17.5234 61.6172 17.6797C61.3203 17.8359 61.0052 17.9531 60.6719 18.0312C60.3438 18.1146 60.0052 18.1562 59.6562 18.1562C59.0677 18.1562 58.513 18.0469 57.9922 17.8281C57.4766 17.6094 57.0234 17.3047 56.6328 16.9141C56.2474 16.5234 55.9427 16.0599 55.7188 15.5234C55.4948 14.9818 55.3828 14.388 55.3828 13.7422C55.3828 13.0807 55.4948 12.4766 55.7188 11.9297C55.9427 11.3828 56.2474 10.9167 56.6328 10.5312C57.0234 10.1458 57.4766 9.84635 57.9922 9.63281C58.513 9.41927 59.0677 9.3125 59.6562 9.3125C60.0052 9.3125 60.3464 9.35417 60.6797 9.4375C61.013 9.52083 61.3281 9.64062 61.625 9.79688C61.9271 9.95312 62.2083 10.1458 62.4688 10.375C62.7292 10.599 62.9583 10.8516 63.1562 11.1328L59.1562 15.9531ZM60.25 11.5547C60.151 11.5182 60.0521 11.4948 59.9531 11.4844C59.8594 11.474 59.7604 11.4688 59.6562 11.4688C59.3646 11.4688 59.0885 11.5234 58.8281 11.6328C58.5729 11.737 58.349 11.888 58.1562 12.0859C57.9688 12.2839 57.8203 12.5234 57.7109 12.8047C57.6016 13.0807 57.5469 13.3932 57.5469 13.7422C57.5469 13.8203 57.5495 13.9089 57.5547 14.0078C57.5651 14.1068 57.5781 14.2083 57.5938 14.3125C57.6146 14.4115 57.638 14.5078 57.6641 14.6016C57.6901 14.6953 57.724 14.7786 57.7656 14.8516L60.25 11.5547ZM75.5781 18H73.3438V10C73.3438 9.84375 73.3125 9.69792 73.25 9.5625C73.1927 9.42708 73.112 9.3099 73.0078 9.21094C72.9089 9.10677 72.7917 9.02604 72.6562 8.96875C72.5208 8.91146 72.375 8.88281 72.2188 8.88281C72.0625 8.88281 71.9167 8.91146 71.7812 8.96875C71.6458 9.02604 71.526 9.10677 71.4219 9.21094C71.3229 9.3099 71.2448 9.42708 71.1875 9.5625C71.1302 9.69792 71.1016 9.84375 71.1016 10V18H68.8594V10C68.8594 9.84375 68.8307 9.69792 68.7734 9.5625C68.7161 9.42708 68.6354 9.3099 68.5312 9.21094C68.4323 9.10677 68.3151 9.02604 68.1797 8.96875C68.0443 8.91146 67.8984 8.88281 67.7422 8.88281C67.5859 8.88281 67.4401 8.91146 67.3047 8.96875C67.1693 9.02604 67.0495 9.10677 66.9453 9.21094C66.8464 9.3099 66.7682 9.42708 66.7109 9.5625C66.6536 9.69792 66.625 9.84375 66.625 10V18H64.3828V10C64.3828 9.53646 64.4688 9.10156 64.6406 8.69531C64.8177 8.28385 65.0573 7.92708 65.3594 7.625C65.6667 7.31771 66.0234 7.07812 66.4297 6.90625C66.8411 6.72917 67.2786 6.64062 67.7422 6.64062C68.1589 6.64062 68.5599 6.71615 68.9453 6.86719C69.3307 7.01302 69.6771 7.22656 69.9844 7.50781C70.2917 7.22656 70.6354 7.01302 71.0156 6.86719C71.401 6.71615 71.8021 6.64062 72.2188 6.64062C72.6823 6.64062 73.1172 6.72917 73.5234 6.90625C73.9349 7.07812 74.2917 7.31771 74.5938 7.625C74.901 7.92708 75.1406 8.28385 75.3125 8.69531C75.4896 9.10156 75.5781 9.53646 75.5781 10V18ZM85.3672 18H84.8516L84.0234 16.8516C83.8203 17.0339 83.6042 17.2057 83.375 17.3672C83.151 17.5234 82.9141 17.6615 82.6641 17.7812C82.4141 17.8958 82.1562 17.987 81.8906 18.0547C81.6302 18.1224 81.3646 18.1562 81.0938 18.1562C80.5052 18.1562 79.9505 18.0573 79.4297 17.8594C78.9141 17.6615 78.4609 17.375 78.0703 17C77.6849 16.6198 77.3802 16.1562 77.1562 15.6094C76.9323 15.0625 76.8203 14.4401 76.8203 13.7422C76.8203 13.0911 76.9323 12.4948 77.1562 11.9531C77.3802 11.4062 77.6849 10.9375 78.0703 10.5469C78.4609 10.1562 78.9141 9.85417 79.4297 9.64062C79.9505 9.42188 80.5052 9.3125 81.0938 9.3125C81.3646 9.3125 81.6328 9.34635 81.8984 9.41406C82.1641 9.48177 82.4219 9.57552 82.6719 9.69531C82.9219 9.8151 83.1589 9.95573 83.3828 10.1172C83.612 10.2786 83.8255 10.4531 84.0234 10.6406L84.8516 9.64844H85.3672V18ZM83.2188 13.7422C83.2188 13.4505 83.1615 13.1693 83.0469 12.8984C82.9375 12.6224 82.7865 12.3802 82.5938 12.1719C82.401 11.9583 82.1745 11.7891 81.9141 11.6641C81.6589 11.5339 81.3854 11.4688 81.0938 11.4688C80.8021 11.4688 80.526 11.5182 80.2656 11.6172C80.0104 11.7161 79.7865 11.862 79.5938 12.0547C79.4062 12.2474 79.2578 12.487 79.1484 12.7734C79.0391 13.0547 78.9844 13.3776 78.9844 13.7422C78.9844 14.1068 79.0391 14.4323 79.1484 14.7188C79.2578 15 79.4062 15.237 79.5938 15.4297C79.7865 15.6224 80.0104 15.7682 80.2656 15.8672C80.526 15.9661 80.8021 16.0156 81.0938 16.0156C81.3854 16.0156 81.6589 15.9531 81.9141 15.8281C82.1745 15.6979 82.401 15.5286 82.5938 15.3203C82.7865 15.1068 82.9375 14.8646 83.0469 14.5938C83.1615 14.3177 83.2188 14.0339 83.2188 13.7422ZM91.1953 18C90.6797 18 90.1953 17.9036 89.7422 17.7109C89.2891 17.513 88.8906 17.2448 88.5469 16.9062C88.2083 16.5625 87.9401 16.1641 87.7422 15.7109C87.5495 15.2578 87.4531 14.7734 87.4531 14.2578V11.7734H86.4141V9.64844H87.4531V6.30469H89.5781V9.64844H92.8125V11.7734H89.5781V14.2578C89.5781 14.4818 89.6198 14.6927 89.7031 14.8906C89.7865 15.0833 89.901 15.2526 90.0469 15.3984C90.1927 15.5443 90.3646 15.6615 90.5625 15.75C90.7604 15.8333 90.9714 15.875 91.1953 15.875H92.8125V18H91.1953ZM97.3438 15.9531C97.4271 15.9792 97.5104 15.9974 97.5938 16.0078C97.6771 16.013 97.7604 16.0156 97.8438 16.0156C98.0521 16.0156 98.2526 15.987 98.4453 15.9297C98.638 15.8724 98.8177 15.7917 98.9844 15.6875C99.1562 15.5781 99.3073 15.4479 99.4375 15.2969C99.5729 15.1406 99.6823 14.9688 99.7656 14.7812L101.328 16.3516C101.13 16.6328 100.901 16.8854 100.641 17.1094C100.385 17.3333 100.107 17.5234 99.8047 17.6797C99.5078 17.8359 99.1927 17.9531 98.8594 18.0312C98.5312 18.1146 98.1927 18.1562 97.8438 18.1562C97.2552 18.1562 96.7005 18.0469 96.1797 17.8281C95.6641 17.6094 95.2109 17.3047 94.8203 16.9141C94.4349 16.5234 94.1302 16.0599 93.9062 15.5234C93.6823 14.9818 93.5703 14.388 93.5703 13.7422C93.5703 13.0807 93.6823 12.4766 93.9062 11.9297C94.1302 11.3828 94.4349 10.9167 94.8203 10.5312C95.2109 10.1458 95.6641 9.84635 96.1797 9.63281C96.7005 9.41927 97.2552 9.3125 97.8438 9.3125C98.1927 9.3125 98.5339 9.35417 98.8672 9.4375C99.2005 9.52083 99.5156 9.64062 99.8125 9.79688C100.115 9.95312 100.396 10.1458 100.656 10.375C100.917 10.599 101.146 10.8516 101.344 11.1328L97.3438 15.9531ZM98.4375 11.5547C98.3385 11.5182 98.2396 11.4948 98.1406 11.4844C98.0469 11.474 97.9479 11.4688 97.8438 11.4688C97.5521 11.4688 97.276 11.5234 97.0156 11.6328C96.7604 11.737 96.5365 11.888 96.3438 12.0859C96.1562 12.2839 96.0078 12.5234 95.8984 12.8047C95.7891 13.0807 95.7344 13.3932 95.7344 13.7422C95.7344 13.8203 95.737 13.9089 95.7422 14.0078C95.7526 14.1068 95.7656 14.2083 95.7812 14.3125C95.8021 14.4115 95.8255 14.5078 95.8516 14.6016C95.8776 14.6953 95.9115 14.7786 95.9531 14.8516L98.4375 11.5547ZM107.016 18H102.141V15.875H107.016C107.161 15.875 107.286 15.8229 107.391 15.7188C107.495 15.6146 107.547 15.4896 107.547 15.3438C107.547 15.1927 107.495 15.0938 107.391 15.0469C107.286 15 107.161 14.9766 107.016 14.9766H104.797C104.427 14.9766 104.081 14.9062 103.758 14.7656C103.435 14.625 103.154 14.4349 102.914 14.1953C102.674 13.9505 102.484 13.6667 102.344 13.3438C102.208 13.0208 102.141 12.6745 102.141 12.3047C102.141 11.9349 102.208 11.5885 102.344 11.2656C102.484 10.9427 102.674 10.6615 102.914 10.4219C103.154 10.1823 103.435 9.99479 103.758 9.85938C104.081 9.71875 104.427 9.64844 104.797 9.64844H109.117V11.7734H104.797C104.651 11.7734 104.526 11.8255 104.422 11.9297C104.318 12.0339 104.266 12.1589 104.266 12.3047C104.266 12.4557 104.318 12.5859 104.422 12.6953C104.526 12.7995 104.651 12.8516 104.797 12.8516H107.016C107.38 12.8516 107.724 12.9141 108.047 13.0391C108.37 13.1589 108.651 13.3281 108.891 13.5469C109.13 13.7656 109.32 14.0286 109.461 14.3359C109.602 14.6432 109.672 14.9792 109.672 15.3438C109.672 15.7135 109.602 16.0599 109.461 16.3828C109.32 16.7005 109.13 16.9818 108.891 17.2266C108.651 17.4661 108.37 17.6562 108.047 17.7969C107.724 17.9323 107.38 18 107.016 18Z" fill="#020202"/>
</svg>
