<svg width="426" height="80" viewBox="0 0 426 80" fill="none" xmlns="http://www.w3.org/2000/svg">
<g filter="url(#filter0_d_51_1328)">
<rect x="16" y="16" width="390" height="40" rx="12" fill="white" shape-rendering="crispEdges"/>
<g clip-path="url(#clip0_51_1328)">
<path d="M58.5 38H57.71L57.43 37.73C58.41 36.59 59 35.11 59 33.5C59 29.91 56.09 27 52.5 27C48.91 27 46 29.91 46 33.5C46 37.09 48.91 40 52.5 40C54.11 40 55.59 39.41 56.73 38.43L57 38.71V39.5L62 44.49L63.49 43L58.5 38ZM52.5 38C50.01 38 48 35.99 48 33.5C48 31.01 50.01 29 52.5 29C54.99 29 57 31.01 57 33.5C57 35.99 54.99 38 52.5 38Z" fill="#434343"/>
</g>
<path d="M79.4044 41.098C78.7604 41.098 78.1911 40.986 77.6964 40.762C77.2111 40.538 76.8284 40.2253 76.5484 39.824C76.2684 39.4227 76.1191 38.9747 76.1004 38.48H77.1364C77.1831 38.956 77.3931 39.376 77.7664 39.74C78.1397 40.0947 78.6857 40.272 79.4044 40.272C80.0671 40.272 80.5897 40.104 80.9724 39.768C81.3644 39.4227 81.5604 38.9887 81.5604 38.466C81.5604 38.046 81.4531 37.71 81.2384 37.458C81.0237 37.1967 80.7577 37.0053 80.4404 36.884C80.1231 36.7533 79.6844 36.6133 79.1244 36.464C78.4711 36.2867 77.9531 36.114 77.5704 35.946C77.1877 35.778 76.8611 35.5167 76.5904 35.162C76.3197 34.8073 76.1844 34.3267 76.1844 33.72C76.1844 33.216 76.3151 32.768 76.5764 32.376C76.8377 31.9747 77.2064 31.662 77.6824 31.438C78.1584 31.214 78.7044 31.102 79.3204 31.102C80.2257 31.102 80.9537 31.326 81.5044 31.774C82.0644 32.2127 82.3864 32.782 82.4704 33.482H81.4064C81.3411 33.0807 81.1217 32.726 80.7484 32.418C80.3751 32.1007 79.8711 31.942 79.2364 31.942C78.6484 31.942 78.1584 32.1007 77.7664 32.418C77.3744 32.726 77.1784 33.1507 77.1784 33.692C77.1784 34.1027 77.2857 34.434 77.5004 34.686C77.7151 34.938 77.9811 35.1293 78.2984 35.26C78.6251 35.3907 79.0637 35.5307 79.6144 35.68C80.2491 35.8573 80.7624 36.0347 81.1544 36.212C81.5464 36.38 81.8777 36.6413 82.1484 36.996C82.4191 37.3507 82.5544 37.8267 82.5544 38.424C82.5544 38.8813 82.4331 39.3153 82.1904 39.726C81.9477 40.1367 81.5884 40.468 81.1124 40.72C80.6364 40.972 80.0671 41.098 79.4044 41.098ZM91.3641 36.786C91.3641 37.122 91.3548 37.3787 91.3361 37.556H84.9941C85.0221 38.1347 85.1621 38.6293 85.4141 39.04C85.6661 39.4507 85.9975 39.7633 86.4081 39.978C86.8188 40.1833 87.2668 40.286 87.7521 40.286C88.3868 40.286 88.9188 40.132 89.3481 39.824C89.7868 39.516 90.0761 39.1007 90.2161 38.578H91.2521C91.0655 39.3247 90.6641 39.936 90.0481 40.412C89.4415 40.8787 88.6761 41.112 87.7521 41.112C87.0335 41.112 86.3895 40.9533 85.8201 40.636C85.2508 40.3093 84.8028 39.852 84.4761 39.264C84.1588 38.6667 84.0001 37.9713 84.0001 37.178C84.0001 36.3847 84.1588 35.6893 84.4761 35.092C84.7935 34.4947 85.2368 34.0373 85.8061 33.72C86.3755 33.4027 87.0241 33.244 87.7521 33.244C88.4801 33.244 89.1148 33.4027 89.6561 33.72C90.2068 34.0373 90.6268 34.4667 90.9161 35.008C91.2148 35.54 91.3641 36.1327 91.3641 36.786ZM90.3701 36.758C90.3795 36.1887 90.2628 35.7033 90.0201 35.302C89.7868 34.9007 89.4648 34.5973 89.0541 34.392C88.6435 34.1867 88.1955 34.084 87.7101 34.084C86.9821 34.084 86.3615 34.3173 85.8481 34.784C85.3348 35.2507 85.0501 35.9087 84.9941 36.758H90.3701ZM92.7091 37.164C92.7091 36.38 92.8631 35.694 93.1711 35.106C93.4884 34.5087 93.9224 34.0513 94.4731 33.734C95.0331 33.4073 95.6631 33.244 96.3631 33.244C97.0911 33.244 97.7164 33.412 98.2391 33.748C98.7711 34.084 99.1538 34.5133 99.3871 35.036V33.356H100.367V41H99.3871V39.306C99.1444 39.8287 98.7571 40.2627 98.2251 40.608C97.7024 40.944 97.0771 41.112 96.3491 41.112C95.6584 41.112 95.0331 40.9487 94.4731 40.622C93.9224 40.2953 93.4884 39.8333 93.1711 39.236C92.8631 38.6387 92.7091 37.948 92.7091 37.164ZM99.3871 37.178C99.3871 36.562 99.2611 36.0207 99.0091 35.554C98.7571 35.0873 98.4118 34.728 97.9731 34.476C97.5438 34.224 97.0678 34.098 96.5451 34.098C96.0038 34.098 95.5184 34.2193 95.0891 34.462C94.6598 34.7047 94.3191 35.0593 94.0671 35.526C93.8244 35.9833 93.7031 36.5293 93.7031 37.164C93.7031 37.7893 93.8244 38.34 94.0671 38.816C94.3191 39.2827 94.6598 39.642 95.0891 39.894C95.5184 40.1367 96.0038 40.258 96.5451 40.258C97.0678 40.258 97.5438 40.132 97.9731 39.88C98.4118 39.628 98.7571 39.2687 99.0091 38.802C99.2611 38.3353 99.3871 37.794 99.3871 37.178ZM103.584 34.714C103.799 34.238 104.126 33.8693 104.564 33.608C105.012 33.3467 105.558 33.216 106.202 33.216V34.238H105.936C105.227 34.238 104.658 34.4293 104.228 34.812C103.799 35.1947 103.584 35.834 103.584 36.73V41H102.604V33.356H103.584V34.714ZM107.229 37.178C107.229 36.3847 107.387 35.694 107.705 35.106C108.022 34.5087 108.461 34.0513 109.021 33.734C109.581 33.4073 110.22 33.244 110.939 33.244C111.881 33.244 112.656 33.4773 113.263 33.944C113.879 34.4107 114.275 35.0453 114.453 35.848H113.403C113.272 35.2973 112.987 34.868 112.549 34.56C112.119 34.2427 111.583 34.084 110.939 34.084C110.425 34.084 109.963 34.2007 109.553 34.434C109.142 34.6673 108.815 35.0173 108.573 35.484C108.339 35.9413 108.223 36.506 108.223 37.178C108.223 37.85 108.339 38.4193 108.573 38.886C108.815 39.3527 109.142 39.7027 109.553 39.936C109.963 40.1693 110.425 40.286 110.939 40.286C111.583 40.286 112.119 40.132 112.549 39.824C112.987 39.5067 113.272 39.068 113.403 38.508H114.453C114.275 39.292 113.879 39.922 113.263 40.398C112.647 40.874 111.872 41.112 110.939 41.112C110.22 41.112 109.581 40.9533 109.021 40.636C108.461 40.3093 108.022 39.852 107.705 39.264C107.387 38.6667 107.229 37.9713 107.229 37.178ZM119.903 33.216C120.481 33.216 120.999 33.3373 121.457 33.58C121.923 33.8227 122.287 34.196 122.549 34.7C122.819 35.1947 122.955 35.8013 122.955 36.52V41H121.989V36.632C121.989 35.8013 121.779 35.1667 121.359 34.728C120.948 34.2893 120.383 34.07 119.665 34.07C118.927 34.07 118.339 34.3033 117.901 34.77C117.462 35.2367 117.243 35.9227 117.243 36.828V41H116.263V30.64H117.243V34.658C117.485 34.2007 117.84 33.846 118.307 33.594C118.783 33.342 119.315 33.216 119.903 33.216ZM135.222 34.028C135.222 34.868 134.946 35.5447 134.396 36.058C133.845 36.5713 133.019 36.828 131.918 36.828H129.944V41H128.964V31.214H131.918C133.01 31.214 133.831 31.4707 134.382 31.984C134.942 32.4973 135.222 33.1787 135.222 34.028ZM131.918 35.988C133.448 35.988 134.214 35.3347 134.214 34.028C134.214 33.3747 134.032 32.88 133.668 32.544C133.304 32.208 132.72 32.04 131.918 32.04H129.944V35.988H131.918ZM137.846 34.714C138.061 34.238 138.387 33.8693 138.826 33.608C139.274 33.3467 139.82 33.216 140.464 33.216V34.238H140.198C139.489 34.238 138.919 34.4293 138.49 34.812C138.061 35.1947 137.846 35.834 137.846 36.73V41H136.866V33.356H137.846V34.714ZM145.284 41.112C144.566 41.112 143.917 40.9533 143.338 40.636C142.769 40.3093 142.316 39.852 141.98 39.264C141.654 38.6667 141.49 37.9713 141.49 37.178C141.49 36.3847 141.658 35.694 141.994 35.106C142.33 34.5087 142.788 34.0513 143.366 33.734C143.945 33.4073 144.594 33.244 145.312 33.244C146.031 33.244 146.68 33.4073 147.258 33.734C147.846 34.0513 148.304 34.5087 148.63 35.106C148.966 35.694 149.134 36.3847 149.134 37.178C149.134 37.962 148.966 38.6527 148.63 39.25C148.294 39.8473 147.832 40.3093 147.244 40.636C146.656 40.9533 146.003 41.112 145.284 41.112ZM145.284 40.258C145.788 40.258 146.255 40.146 146.684 39.922C147.114 39.6887 147.459 39.3433 147.72 38.886C147.991 38.4193 148.126 37.85 148.126 37.178C148.126 36.506 147.996 35.9413 147.734 35.484C147.473 35.0173 147.128 34.672 146.698 34.448C146.269 34.2147 145.802 34.098 145.298 34.098C144.794 34.098 144.328 34.2147 143.898 34.448C143.469 34.672 143.124 35.0173 142.862 35.484C142.61 35.9413 142.484 36.506 142.484 37.178C142.484 37.85 142.61 38.4193 142.862 38.886C143.124 39.3433 143.464 39.6887 143.884 39.922C144.314 40.146 144.78 40.258 145.284 40.258ZM150.473 37.164C150.473 36.38 150.631 35.694 150.949 35.106C151.266 34.5087 151.7 34.0513 152.251 33.734C152.811 33.4073 153.441 33.244 154.141 33.244C154.813 33.244 155.419 33.4073 155.961 33.734C156.502 34.0607 156.899 34.4853 157.151 35.008V30.64H158.131V41H157.151V39.292C156.917 39.824 156.535 40.2627 156.003 40.608C155.471 40.944 154.845 41.112 154.127 41.112C153.427 41.112 152.797 40.9487 152.237 40.622C151.686 40.2953 151.252 39.8333 150.935 39.236C150.627 38.6387 150.473 37.948 150.473 37.164ZM157.151 37.178C157.151 36.562 157.025 36.0207 156.773 35.554C156.521 35.0873 156.175 34.728 155.737 34.476C155.307 34.224 154.831 34.098 154.309 34.098C153.767 34.098 153.282 34.2193 152.853 34.462C152.423 34.7047 152.083 35.0593 151.831 35.526C151.588 35.9833 151.467 36.5293 151.467 37.164C151.467 37.7893 151.588 38.34 151.831 38.816C152.083 39.2827 152.423 39.642 152.853 39.894C153.282 40.1367 153.767 40.258 154.309 40.258C154.831 40.258 155.307 40.132 155.737 39.88C156.175 39.628 156.521 39.2687 156.773 38.802C157.025 38.3353 157.151 37.794 157.151 37.178ZM166.99 33.356V41H166.01V39.656C165.786 40.132 165.441 40.496 164.974 40.748C164.507 41 163.985 41.126 163.406 41.126C162.491 41.126 161.745 40.846 161.166 40.286C160.587 39.7167 160.298 38.8953 160.298 37.822V33.356H161.264V37.71C161.264 38.5407 161.469 39.1753 161.88 39.614C162.3 40.0527 162.869 40.272 163.588 40.272C164.325 40.272 164.913 40.0387 165.352 39.572C165.791 39.1053 166.01 38.4193 166.01 37.514V33.356H166.99ZM168.779 37.178C168.779 36.3847 168.938 35.694 169.255 35.106C169.573 34.5087 170.011 34.0513 170.571 33.734C171.131 33.4073 171.771 33.244 172.489 33.244C173.432 33.244 174.207 33.4773 174.813 33.944C175.429 34.4107 175.826 35.0453 176.003 35.848H174.953C174.823 35.2973 174.538 34.868 174.099 34.56C173.67 34.2427 173.133 34.084 172.489 34.084C171.976 34.084 171.514 34.2007 171.103 34.434C170.693 34.6673 170.366 35.0173 170.123 35.484C169.89 35.9413 169.773 36.506 169.773 37.178C169.773 37.85 169.89 38.4193 170.123 38.886C170.366 39.3527 170.693 39.7027 171.103 39.936C171.514 40.1693 171.976 40.286 172.489 40.286C173.133 40.286 173.67 40.132 174.099 39.824C174.538 39.5067 174.823 39.068 174.953 38.508H176.003C175.826 39.292 175.429 39.922 174.813 40.398C174.197 40.874 173.423 41.112 172.489 41.112C171.771 41.112 171.131 40.9533 170.571 40.636C170.011 40.3093 169.573 39.852 169.255 39.264C168.938 38.6667 168.779 37.9713 168.779 37.178ZM179.087 34.182V38.928C179.087 39.3947 179.176 39.7167 179.353 39.894C179.531 40.0713 179.843 40.16 180.291 40.16H181.187V41H180.137C179.447 41 178.933 40.8413 178.597 40.524C178.261 40.1973 178.093 39.6653 178.093 38.928V34.182H177.029V33.356H178.093V31.438H179.087V33.356H181.187V34.182H179.087Z" fill="#ACACAC"/>
</g>
<defs>
<filter id="filter0_d_51_1328" x="0" y="0" width="430" height="80" filterUnits="userSpaceOnUse" color-interpolation-filters="sRGB">
<feFlood flood-opacity="0" result="BackgroundImageFix"/>
<feColorMatrix in="SourceAlpha" type="matrix" values="0 0 0 0 0 0 0 0 0 0 0 0 0 0 0 0 0 0 127 0" result="hardAlpha"/>
<feOffset dx="4" dy="4"/>
<feGaussianBlur stdDeviation="10"/>
<feComposite in2="hardAlpha" operator="out"/>
<feColorMatrix type="matrix" values="0 0 0 0 0 0 0 0 0 0 0 0 0 0 0 0 0 0 0.07 0"/>
<feBlend mode="normal" in2="BackgroundImageFix" result="effect1_dropShadow_51_1328"/>
<feBlend mode="normal" in="SourceGraphic" in2="effect1_dropShadow_51_1328" result="shape"/>
</filter>
<clipPath id="clip0_51_1328">
<rect width="24" height="24" fill="white" transform="translate(43 24)"/>
</clipPath>
</defs>
</svg>
