<svg width="24" height="24" viewBox="0 0 24 24" fill="none" xmlns="http://www.w3.org/2000/svg">
<g clip-path="url(#clip0_51_714)">
<path d="M11.9993 2C17.523 2 22 6.47778 22 12C22 17.5237 17.523 22 11.9993 22C6.47704 22 2 17.5244 2 12C2 6.47704 6.47704 2 11.9993 2ZM17.2407 16.9481C16.9259 16.9481 16.6296 16.8541 16.337 16.6585C14.7193 15.5815 15.2719 14.2896 16.3763 12.2904C16.843 11.4422 17.3259 10.5689 17.5407 9.66667C17.7711 8.6963 17.9807 7.28148 17.1393 6.21185C16.7437 5.71037 16.1415 5.32296 15.3519 5.06074C14.5281 4.78889 13.4704 4.64148 12.2037 4.62444L12.1163 4.62222L11.7948 4.62444C10.5289 4.64148 9.46963 4.78889 8.64815 5.06074C7.85704 5.32296 7.25556 5.70963 6.85926 6.21185C6.01778 7.28222 6.22741 8.6963 6.45926 9.66667C6.67259 10.5689 7.1563 11.4444 7.62222 12.2896C8.72667 14.2896 9.28 15.5815 7.66074 16.6585C7.36889 16.8541 7.07407 16.9474 6.75852 16.9474C6.12889 16.9474 5.40296 16.6326 5.0163 16.44L5.11037 16.6052C5.91037 17.8059 6.93852 18.4444 8.08074 18.4444C8.58148 18.4444 9.11037 18.323 9.65111 18.083C10.2252 17.8289 10.7289 17.3637 11.0711 16.7726C11.4119 16.1815 11.5474 15.5452 11.4504 14.9793C11.3333 14.4719 11.0681 13.7896 10.7637 12.9993C9.96593 10.9378 8.8763 8.11926 9.81704 6.74074C10.2141 6.15926 10.9281 5.87481 11.9985 5.87111C13.0704 5.87481 13.7837 6.15926 14.1807 6.74074C15.123 8.11926 14.0326 10.9378 13.2363 12.9963C12.9304 13.7874 12.6659 14.4704 12.5489 14.9741C12.4511 15.5452 12.5859 16.1815 12.9281 16.7726C13.2704 17.3637 13.7741 17.8289 14.3481 18.0837C14.8889 18.323 15.4178 18.4444 15.9185 18.4444C17.0607 18.4444 18.0889 17.8059 18.8926 16.6L18.983 16.44C18.5978 16.6326 17.8719 16.9481 17.2407 16.9481Z" fill="#D31334"/>
</g>
<defs>
<clipPath id="clip0_51_714">
<rect width="20" height="20" fill="white" transform="translate(2 2)"/>
</clipPath>
</defs>
</svg>
