<svg width="24" height="24" viewBox="0 0 24 24" fill="none" xmlns="http://www.w3.org/2000/svg">
<path d="M19.3516 14.2359C17.8887 13.3626 16.6677 12.1371 15.8 10.6709C14.9334 9.2068 14.448 7.54868 14.3883 5.84841C14.3869 5.67614 14.3393 5.5074 14.2505 5.35979C14.1617 5.21218 14.0349 5.09112 13.8833 5.00924C13.7313 4.91656 13.5567 4.86753 13.3787 4.86753C13.2007 4.86753 13.0261 4.91656 12.8741 5.00924C12.3628 5.25774 11.8018 5.38682 11.2333 5.38674C10.582 5.41605 9.93423 5.27709 9.35228 4.98327C8.77034 4.68945 8.27389 4.25068 7.9108 3.70924C7.77915 3.52335 7.60107 3.37521 7.39432 3.27958C7.18758 3.18396 6.95938 3.14419 6.73247 3.16424C6.51762 3.18939 6.31381 3.27312 6.14333 3.40627C5.97285 3.53942 5.84225 3.71688 5.7658 3.91924C5.30693 5.04012 4.68309 6.08613 3.91497 7.02257C3.42831 7.63842 2.97863 8.28261 2.5683 8.95174C2.19881 9.46468 2 10.0808 2 10.713C2 11.3451 2.19881 11.9613 2.5683 12.4742C3.51841 13.6172 4.71119 14.5341 6.05997 15.1584C7.36757 15.8019 8.57238 16.636 9.63497 17.6334C10.671 18.7269 11.9351 19.579 13.3375 20.1292C14.7411 20.68 16.2485 20.9161 17.7533 20.8209C21.2025 20.8209 21.665 19.5209 21.9591 18.3042C22.2116 16.8359 21.2858 15.4942 19.3508 14.2359H19.3516ZM6.73247 4.38007C7.41725 5.35909 8.41276 6.07797 9.55747 6.42007C10.7032 6.76282 11.9311 6.70909 13.0425 6.26757C13.0708 6.81757 13.1408 7.36424 13.2525 7.90341H11.065V8.28007C11.0647 8.39055 11.0864 8.49997 11.1286 8.60205C11.1709 8.70412 11.2329 8.79683 11.3111 8.87483C11.3894 8.95283 11.4823 9.01458 11.5845 9.05653C11.6867 9.09848 11.7962 9.11979 11.9066 9.11924H13.5891C13.7575 9.56674 13.925 9.98591 14.0933 10.3776H12.2008V10.7967C12.2006 10.9072 12.2222 11.0166 12.2645 11.1187C12.3067 11.2208 12.3687 11.3135 12.447 11.3915C12.5252 11.4695 12.6181 11.5313 12.7203 11.5732C12.8225 11.6151 12.932 11.6365 13.0425 11.6359H14.8091C15.7719 13.1138 17.0503 14.3598 18.5525 15.2842C19.4922 15.7426 20.2271 16.5351 20.6133 17.5067C20.1542 17.5893 19.6841 17.5893 19.225 17.5067C17.7941 17.5443 16.3709 17.2842 15.0459 16.7428C13.7208 16.2014 12.5227 15.3906 11.5275 14.3617C10.4989 13.3809 9.37116 12.5095 8.16247 11.7617C7.01537 11.117 6.03574 10.2119 5.30247 9.11924C5.08731 8.79628 4.9725 8.41689 4.9725 8.02882C4.9725 7.64076 5.08731 7.26136 5.30247 6.93841C5.93707 6.16165 6.46095 5.30068 6.85914 4.38007H6.73247ZM17.9216 19.6884C16.5667 19.7831 15.2076 19.5764 13.9421 19.0832C12.6765 18.59 11.536 17.8225 10.6025 16.8359C9.4635 15.7606 8.17417 14.8567 6.77497 14.1526C5.59807 13.6128 4.5617 12.8086 3.74664 11.8026C3.53132 11.5034 3.41548 11.1441 3.41548 10.7755C3.41548 10.4069 3.53132 10.0476 3.74664 9.74841L4.12497 9.20341C4.20747 9.50007 4.33497 9.78341 4.5033 10.0417C5.33664 11.3084 6.46164 12.3584 7.78414 13.1034C8.92115 13.8158 9.9911 14.63 10.9808 15.5359C12.064 16.6681 13.3712 17.5621 14.8191 18.1609C16.2682 18.7605 17.8263 19.052 19.3941 19.0167H20.4866C20.4866 19.2684 19.6875 19.6884 17.9216 19.6884Z" fill="black"/>
</svg>
