<svg width="25" height="25" viewBox="0 0 25 25" fill="none" xmlns="http://www.w3.org/2000/svg">
<path d="M12.5 3.60421C14.1917 3.60421 15.5625 4.97504 15.5625 6.66671C15.5625 8.35837 14.1917 9.72921 12.5 9.72921C10.8084 9.72921 9.43754 8.35837 9.43754 6.66671C9.43754 4.97504 10.8084 3.60421 12.5 3.60421ZM12.5 16.7292C16.8313 16.7292 21.3959 18.8584 21.3959 19.7917V21.3959H3.60421V19.7917C3.60421 18.8584 8.16879 16.7292 12.5 16.7292ZM12.5 0.833374C9.27712 0.833374 6.66671 3.44379 6.66671 6.66671C6.66671 9.88962 9.27712 12.5 12.5 12.5C15.723 12.5 18.3334 9.88962 18.3334 6.66671C18.3334 3.44379 15.723 0.833374 12.5 0.833374ZM12.5 13.9584C8.60629 13.9584 0.833374 15.9125 0.833374 19.7917V24.1667H24.1667V19.7917C24.1667 15.9125 16.3938 13.9584 12.5 13.9584Z" fill="#4E4E4E"/>
</svg>
