<svg width="20" height="20" viewBox="0 0 20 20" fill="none" xmlns="http://www.w3.org/2000/svg">
<path d="M17.3516 12.2358C15.8887 11.3625 14.6677 10.1369 13.8 8.67078C12.9334 7.20668 12.448 5.54856 12.3883 3.84828C12.3869 3.67602 12.3393 3.50727 12.2505 3.35967C12.1617 3.21206 12.0349 3.091 11.8833 3.00912C11.7313 2.91644 11.5567 2.8674 11.3787 2.8674C11.2007 2.8674 11.0261 2.91644 10.8741 3.00912C10.3628 3.25761 9.80178 3.3867 9.2333 3.38662C8.58205 3.41592 7.93423 3.27697 7.35228 2.98315C6.77034 2.68933 6.27389 2.25056 5.9108 1.70912C5.77915 1.52322 5.60107 1.37508 5.39432 1.27946C5.18758 1.18383 4.95938 1.14407 4.73247 1.16412C4.51762 1.18927 4.31381 1.273 4.14333 1.40615C3.97285 1.5393 3.84225 1.71676 3.7658 1.91912C3.30693 3.04 2.68309 4.086 1.91497 5.02245C1.42831 5.6383 0.978631 6.28249 0.568302 6.95162C0.198813 7.46456 0 8.08071 0 8.71287C0 9.34503 0.198813 9.96118 0.568302 10.4741C1.51841 11.617 2.71119 12.534 4.05997 13.1583C5.36757 13.8018 6.57238 14.6359 7.63497 15.6333C8.67105 16.7268 9.93512 17.5789 11.3375 18.1291C12.7411 18.6799 14.2485 18.916 15.7533 18.8208C19.2025 18.8208 19.665 17.5208 19.9591 16.3041C20.2116 14.8358 19.2858 13.4941 17.3508 12.2358H17.3516ZM4.73247 2.37995C5.41725 3.35897 6.41276 4.07785 7.55747 4.41995C8.7032 4.7627 9.93105 4.70897 11.0425 4.26745C11.0708 4.81745 11.1408 5.36412 11.2525 5.90328H9.06497V6.27995C9.06475 6.39042 9.08639 6.49985 9.12864 6.60193C9.17089 6.704 9.23291 6.79671 9.31115 6.87471C9.38938 6.95271 9.48227 7.01446 9.58447 7.05641C9.68667 7.09835 9.79616 7.11967 9.90664 7.11912H11.5891C11.7575 7.56662 11.925 7.98578 12.0933 8.37745H10.2008V8.79662C10.2006 8.90709 10.2222 9.01652 10.2645 9.11859C10.3067 9.22067 10.3687 9.31338 10.447 9.39138C10.5252 9.46938 10.6181 9.53113 10.7203 9.57308C10.8225 9.61502 10.932 9.63633 11.0425 9.63578H12.8091C13.7719 11.1137 15.0503 12.3597 16.5525 13.2841C17.4922 13.7425 18.2271 14.535 18.6133 15.5066C18.1542 15.5891 17.6841 15.5891 17.225 15.5066C15.7941 15.5442 14.3709 15.2841 13.0459 14.7427C11.7208 14.2013 10.5227 13.3905 9.52747 12.3616C8.49888 11.3807 7.37116 10.5094 6.16247 9.76162C5.01537 9.11688 4.03574 8.21174 3.30247 7.11912C3.08731 6.79616 2.9725 6.41677 2.9725 6.0287C2.9725 5.64063 3.08731 5.26124 3.30247 4.93828C3.93707 4.16153 4.46095 3.30056 4.85914 2.37995H4.73247ZM15.9216 17.6883C14.5667 17.783 13.2076 17.5763 11.9421 17.0831C10.6765 16.5898 9.53601 15.8224 8.60247 14.8358C7.4635 13.7605 6.17417 12.8566 4.77497 12.1525C3.59807 11.6127 2.5617 10.8085 1.74664 9.80245C1.53132 9.50326 1.41548 9.14398 1.41548 8.77537C1.41548 8.40676 1.53132 8.04747 1.74664 7.74828L2.12497 7.20328C2.20747 7.49995 2.33497 7.78328 2.5033 8.04162C3.33664 9.30828 4.46164 10.3583 5.78414 11.1033C6.92115 11.8157 7.9911 12.6298 8.9808 13.5358C10.064 14.668 11.3712 15.562 12.8191 16.1608C14.2682 16.7604 15.8263 17.0519 17.3941 17.0166H18.4866C18.4866 17.2683 17.6875 17.6883 15.9216 17.6883Z" fill="black"/>
</svg>
